# xmcd CD database file
#
# Track frame offsets:
#	150
#	18793
#	36811
#	61882
#	75822
#	103910
#	122611
#	145658
#	154462
#	175033
#	197193
#	209449
#	232484
#	247635
#
# Disc length: 3621 seconds
#
# Revision: 2
# Processed by: cddbd v1.5.2PL0 Copyright (c) Steve Scherf et al.
# Submitted via: CDex 1.70beta2
#
DISCID=b40e230e
DTITLE=Dave Gordon - Constantly Evolving
DYEAR=2007
DGENRE=Jazz
TTITLE0=I Allow
TTITLE1=Lagdon
TTITLE2=Anthem
TTITLE3=Airplane Ride
TTITLE4=Blues Jambouree
TTITLE5=Downtown After Dark
TTITLE6=Street Of Dreams
TTITLE7=Rings Of Saturn
TTITLE8=Good Ol' Master Leoni
TTITLE9=Sweet And Lovely
TTITLE10=The Legacy Of Babs
TTITLE11=We'll Be Together Again
TTITLE12=Nostalgia In Times Square
TTITLE13=A Ghost Of A Chance
EXTD=YEAR: 2007
EXTT0=
EXTT1=
EXTT2=
EXTT3=
EXTT4=
EXTT5=
EXTT6=
EXTT7=
EXTT8=
EXTT9=
EXTT10=
EXTT11=
EXTT12=
EXTT13=
PLAYORDER=
